HIERARCHY
ROOT Hips
{
	OFFSET -0.001795 -0.223333 0.028219
	CHANNELS 6 Xposition Yposition Zposition Zrotation Yrotation Xrotation 
	JOINT LeftUpLeg
	{
		OFFSET 0.069520 -0.091406 -0.006815
		CHANNELS 3 Zrotation Yrotation Xrotation
		JOINT LeftLeg
		{
			OFFSET 0.034277 -0.375199 -0.004496
			CHANNELS 3 Zrotation Yrotation Xrotation
			JOINT LeftFoot
			{
				OFFSET -0.013596 -0.397961 -0.043693
				CHANNELS 3 Zrotation Yrotation Xrotation
				JOINT LeftToe
				{
					OFFSET 0.026358 -0.055791 0.119288
					CHANNELS 3 Zrotation Yrotation Xrotation
					End Site
					{
						OFFSET 0.000000 0.000000 0.000000
					}
				}
			}
		}
	}
	JOINT RightUpLeg
	{
		OFFSET -0.067670 -0.090522 -0.004320
		CHANNELS 3 Zrotation Yrotation Xrotation
		JOINT RightLeg
		{
			OFFSET -0.038290 -0.382569 -0.008850
			CHANNELS 3 Zrotation Yrotation Xrotation
			JOINT RightFoot
			{
				OFFSET 0.015774 -0.398415 -0.042312
				CHANNELS 3 Zrotation Yrotation Xrotation
				JOINT RightToe
				{
					OFFSET -0.025372 -0.048144 0.123348
					CHANNELS 3 Zrotation Yrotation Xrotation
					End Site
					{
						OFFSET 0.000000 0.000000 0.000000
					}
				}
			}
		}
	}
	JOINT Spine
	{
		OFFSET -0.002533 0.108963 -0.026696
		CHANNELS 3 Zrotation Yrotation Xrotation
		JOINT Spine1
		{
			OFFSET 0.005487 0.135180 0.001092
			CHANNELS 3 Zrotation Yrotation Xrotation
			JOINT Spine2
			{
				OFFSET 0.001457 0.052922 0.025425
				CHANNELS 3 Zrotation Yrotation Xrotation
				JOINT Neck
				{
					OFFSET -0.002778 0.213870 -0.042857
					CHANNELS 3 Zrotation Yrotation Xrotation
					JOINT Head
					{
						OFFSET 0.005152 0.064970 0.051349
						CHANNELS 3 Zrotation Yrotation Xrotation
						End Site
						{
							OFFSET 0.000000 0.000000 0.000000
						}
					}
				}
				JOINT LeftShoulder
				{
					OFFSET 0.078845 0.121749 -0.034090
					CHANNELS 3 Zrotation Yrotation Xrotation
					JOINT LeftArm
					{
						OFFSET 0.090977 0.030469 -0.008868
						CHANNELS 3 Zrotation Yrotation Xrotation
						JOINT LeftForeArm
						{
							OFFSET 0.259612 -0.012772 -0.027456
							CHANNELS 3 Zrotation Yrotation Xrotation
							JOINT LeftHand
							{
								OFFSET 0.249234 0.008986 -0.001171
								CHANNELS 3 Zrotation Yrotation Xrotation
								End Site
								{
									OFFSET 0.000000 0.000000 0.000000
								}
							}
						}
					}
				}
				JOINT RightShoulder
				{
					OFFSET -0.081759 0.118833 -0.038615
					CHANNELS 3 Zrotation Yrotation Xrotation
					JOINT RightArm
					{
						OFFSET -0.096012 0.032551 -0.009143
						CHANNELS 3 Zrotation Yrotation Xrotation
						JOINT RightForeArm
						{
							OFFSET -0.253742 -0.013329 -0.021401
							CHANNELS 3 Zrotation Yrotation Xrotation
							JOINT RightHand
							{
								OFFSET -0.255298 0.007772 -0.005559
								CHANNELS 3 Zrotation Yrotation Xrotation
								End Site
								{
									OFFSET 0.000000 0.000000 0.000000
								}
							}
						}
					}
				}
			}
		}
	}
}
MOTION
Frames: 13
Frame Time: 0.050000
0.000000 0.944884 0.000000 -1.255234 2.937936 2.883440 -0.732132 0.435532 4.440415 2.643773 0.137553 -7.382564 -3.397450 -2.441947 8.228943 0.000000 0.000000 0.000000 4.271555 -0.466694 2.499050 -0.579823 -0.173811 -5.258698 5.546477 8.629948 8.073043 0.000000 0.000000 0.000000 2.588975 0.009641 -0.936240 -0.301555 -0.015890 4.237684 -2.202100 0.998901 2.731448 3.902797 -0.765943 -17.065985 0.000000 0.000000 0.000000 -29.161825 -8.895546 1.543239 -24.173665 7.062294 -3.557974 11.374572 -11.878346 -0.746184 0.000000 0.000000 0.000000 24.175645 6.932301 2.804263 27.584198 -4.043204 -3.487415 -10.563145 18.401511 -0.836496 0.000000 0.000000 0.000000 
-0.000615 0.943301 0.001675 -1.328973 2.625613 3.331447 -0.173868 0.431465 4.772758 1.788704 0.226415 -8.574841 -3.292568 -2.313749 8.183036 0.000000 0.000000 0.000000 4.108443 -0.385177 1.933555 -0.105704 -0.190354 -4.933026 5.560052 8.944409 7.565044 0.000000 0.000000 0.000000 3.267731 0.025609 -1.364783 -0.855092 0.217050 6.129923 -2.966144 1.199269 1.109868 4.173797 -0.531694 -19.918292 0.000000 0.000000 0.000000 -27.157737 -9.723524 2.016596 -25.277535 6.816912 -3.613133 12.925381 -9.931365 -0.760079 0.000000 0.000000 0.000000 24.020319 5.683883 2.051304 27.865275 -3.990295 -3.444170 -12.123616 18.996763 -1.081435 0.000000 0.000000 0.000000 
-0.001249 0.941993 0.003422 -1.195970 2.290786 3.462032 0.107014 0.410780 4.726836 1.024718 0.244746 -8.447008 -3.078524 -2.154054 7.800497 0.000000 0.000000 0.000000 3.998810 -0.429323 2.265439 -0.150349 -0.214430 -5.575169 5.662777 9.290990 7.320937 0.000000 0.000000 0.000000 3.858869 0.001073 -1.130528 -1.503604 0.642563 3.241653 -2.700574 1.091445 3.618804 4.413217 -0.760190 -19.792488 0.000000 0.000000 0.000000 -26.000064 -9.931831 2.450771 -25.553575 7.006856 -3.845367 12.311927 -9.843884 -0.691880 0.000000 0.000000 0.000000 23.195255 6.913392 2.770272 27.783368 -4.143666 -3.559571 -12.818051 18.974426 -1.188780 0.000000 0.000000 0.000000 
-0.002198 0.941307 0.005322 -1.228110 2.169221 3.384648 0.245297 0.464003 5.451956 0.935727 0.282275 -9.334432 -3.082884 -2.119810 7.910194 0.000000 0.000000 0.000000 4.005718 -0.520239 2.915499 -0.008691 -0.255927 -6.372773 5.793971 9.492997 7.435270 0.000000 0.000000 0.000000 4.062712 0.019958 -1.399745 -1.783118 0.772143 4.062502 -2.488132 1.184598 2.674515 3.972513 -0.451902 -20.210647 0.000000 0.000000 0.000000 -27.134651 -10.533614 2.750534 -24.002508 7.317360 -3.584246 12.991514 -8.222578 -0.618057 0.000000 0.000000 0.000000 22.931485 7.540093 3.100518 26.686047 -5.167625 -3.533042 -13.220019 18.598619 -1.221826 0.000000 0.000000 0.000000 
-0.003353 0.940847 0.007247 -1.107120 2.107247 3.144162 0.089952 0.524264 6.011294 1.117234 0.289453 -9.612462 -3.067487 -2.107013 7.888096 0.000000 0.000000 0.000000 4.178645 -0.604597 3.463710 -0.434023 -0.246020 -6.652610 5.778374 9.579399 7.242225 0.000000 0.000000 0.000000 4.293696 0.028417 -1.487441 -1.775444 0.765550 4.303037 -2.939351 1.500989 1.854693 4.408967 -0.826411 -18.611768 0.000000 0.000000 0.000000 -26.675104 -10.899970 2.796381 -22.833127 7.071346 -3.288349 12.534905 -7.420466 -0.531449 0.000000 0.000000 0.000000 22.660859 7.435918 3.131276 26.238951 -4.992152 -3.427203 -12.706796 17.825467 -1.080275 0.000000 0.000000 0.000000 
-0.004493 0.939853 0.009110 -0.930474 2.219160 2.902954 -0.206387 0.571625 6.298725 1.483752 0.273829 -9.439609 -3.026368 -2.206889 7.513360 0.000000 0.000000 0.000000 4.018721 -0.655562 3.916092 -0.324272 -0.255369 -6.736409 5.647540 9.570185 6.834028 0.000000 0.000000 0.000000 4.132493 0.028824 -1.433905 -1.713638 0.724416 4.695883 -2.862332 1.468608 1.670817 3.998723 -0.593966 -18.599493 0.000000 0.000000 0.000000 -26.729049 -11.123029 2.923838 -22.320283 5.766562 -3.006165 12.913078 -6.066487 -0.449098 0.000000 0.000000 0.000000 22.024682 8.048991 3.469147 26.376431 -4.502914 -3.349204 -13.150347 16.940248 -1.066126 0.000000 0.000000 0.000000 
-0.005521 0.939485 0.010538 -0.718741 1.956352 3.009306 -0.355784 0.575125 6.177320 1.395781 0.266802 -9.200193 -2.883952 -2.027885 7.398459 0.000000 0.000000 0.000000 4.119121 -0.698941 4.169634 -0.855413 -0.253584 -7.242207 5.733674 9.776992 6.771610 0.000000 0.000000 0.000000 4.155837 0.030630 -1.474402 -1.761504 0.756375 4.585660 -2.921186 1.861218 1.553643 3.989229 -0.594098 -18.303496 0.000000 0.000000 0.000000 -26.645970 -11.048836 2.767553 -21.863267 5.296067 -2.844840 13.022373 -5.646050 -0.425601 0.000000 0.000000 0.000000 22.107687 7.686903 3.341124 25.738043 -4.384529 -3.258382 -12.777788 16.576392 -0.985684 0.000000 0.000000 0.000000 
-0.006323 0.939246 0.011642 -0.608830 1.916879 3.223760 -0.318156 0.524981 5.647440 1.196874 0.244374 -8.532091 -2.788431 -1.987404 7.134667 0.000000 0.000000 0.000000 4.385295 -0.706637 4.082322 -1.457720 -0.234730 -7.382933 5.691222 9.774900 6.627063 0.000000 0.000000 0.000000 4.479473 0.027842 -1.512530 -1.892372 0.822547 4.742748 -3.143674 2.130903 1.265526 4.390628 -0.807296 -18.128229 0.000000 0.000000 0.000000 -26.903835 -10.928723 2.548989 -21.310757 4.659268 -2.638715 13.337166 -5.392600 -0.424183 0.000000 0.000000 0.000000 22.407228 7.466656 3.308398 25.511987 -4.259856 -3.218081 -12.504024 16.138789 -0.913088 0.000000 0.000000 0.000000 
-0.006925 0.939371 0.012608 -0.516251 1.724734 3.551915 -0.253207 0.480388 5.187750 0.915714 0.240675 -8.204907 -2.696422 -1.833941 7.140386 0.000000 0.000000 0.000000 4.470525 -0.721262 4.115395 -1.761917 -0.256952 -7.996696 5.844236 9.913031 6.898646 0.000000 0.000000 0.000000 4.754823 0.033229 -1.670088 -1.851954 0.800340 5.009429 -3.481973 2.594239 0.922234 4.630241 -0.905111 -18.018791 0.000000 0.000000 0.000000 -27.416424 -11.001321 2.375120 -21.227002 4.874845 -2.603547 13.735847 -5.815677 -0.485419 0.000000 0.000000 0.000000 22.833184 6.934461 3.142152 25.556732 -4.410128 -3.268586 -12.661738 16.640370 -0.957428 0.000000 0.000000 0.000000 
-0.007456 0.939284 0.013719 -0.535090 1.800926 3.801699 -0.034283 0.425671 4.747061 0.644061 0.234414 -7.793352 -2.686397 -1.880076 6.998316 0.000000 0.000000 0.000000 4.680145 -0.749040 4.187095 -2.014326 -0.277471 -8.492873 5.868743 9.856398 7.073697 0.000000 0.000000 0.000000 5.169864 0.017694 -1.582181 -1.886777 0.816329 5.043094 -3.743217 3.072189 0.786408 5.114408 -1.140915 -17.851485 0.000000 0.000000 0.000000 -27.967206 -11.191304 2.220453 -21.027168 5.072010 -2.545375 14.106095 -6.270673 -0.552415 0.000000 0.000000 0.000000 23.349474 6.439792 3.050965 25.276137 -4.569186 -3.296267 -12.503836 17.146209 -0.962287 0.000000 0.000000 0.000000 
-0.007760 0.938779 0.015182 -0.538038 1.591432 3.926773 -0.072814 0.412337 4.555618 0.699315 0.220930 -7.479488 -2.507265 -1.703663 6.716908 0.000000 0.000000 0.000000 4.696616 -0.771970 4.323120 -2.045905 -0.296088 -8.823951 5.969634 10.061438 7.069667 0.000000 0.000000 0.000000 5.596063 0.022161 -1.704239 -1.964825 0.851907 5.718483 -4.139833 3.275414 0.123977 5.043584 -1.110113 -17.563029 0.000000 0.000000 0.000000 -28.599206 -11.229239 2.092481 -20.719618 5.702607 -2.541428 14.372754 -6.748691 -0.613021 0.000000 0.000000 0.000000 23.901184 6.280577 3.016857 25.252522 -5.024765 -3.353717 -11.886095 18.274580 -0.960063 0.000000 0.000000 0.000000 
-0.007964 0.937840 0.017082 -0.659143 1.387183 3.986692 -0.027472 0.390028 4.328185 0.825057 0.194207 -6.918636 -2.248070 -1.513092 6.143571 0.000000 0.000000 0.000000 4.827898 -0.811619 4.522375 -2.062467 -0.310903 -9.088184 6.038894 10.292075 6.928279 0.000000 0.000000 0.000000 6.052015 -0.000724 -1.508755 -1.975412 0.863446 5.668221 -4.516843 3.640869 0.208792 5.516118 -1.395882 -17.220738 0.000000 0.000000 0.000000 -29.420416 -11.690239 2.193843 -20.785840 6.522532 -2.628983 14.857681 -7.161870 -0.685365 0.000000 0.000000 0.000000 25.059992 5.996924 3.013310 24.874962 -5.442903 -3.408926 -11.481502 19.536566 -0.982650 0.000000 0.000000 0.000000 
-0.008160 0.936715 0.019272 -0.734742 0.988421 3.931470 -0.256363 0.415068 4.424935 1.298461 0.160680 -6.634194 -1.911556 -1.164964 5.601364 0.000000 0.000000 0.000000 4.781369 -0.839262 4.738294 -1.902214 -0.316280 -9.121615 6.146615 10.701933 6.632354 0.000000 0.000000 0.000000 6.563595 -0.025519 -1.279788 -1.979197 0.874249 5.909626 -5.023724 3.767217 0.030950 5.792381 -1.539677 -17.251998 0.000000 0.000000 0.000000 -30.051255 -12.258036 2.496192 -21.163360 7.266882 -2.769207 14.845893 -6.882974 -0.656579 0.000000 0.000000 0.000000 25.808885 6.606421 3.452039 25.060351 -6.020808 -3.530897 -10.822370 20.907880 -0.970501 0.000000 0.000000 0.000000 
